PathFileType	4	(X/Y/Z)	C:/Users/beibeiliu/ov580/test_trc/User1\sequence.15_training_dense_right.trc
DataRate	CameraRate	NumFrames	NumMarkers	Units	OrigDataRate	OrigDataStartFrame	OrigNumFrames
120	120	16	19	mm	120	1	273
Frame#	Time	ThumbCMC			ThumbMCP			ThumbIP			ThumbTip			IndexMCP			IndexPIP			IndexTip			MiddleMCP			MiddlePIP			MiddleTip			RingMCP			RingPIP			RingTip			PinkyMCP			PinkyPIP			PinkyTip			BackHand1			BackHand2			BackHand3	
		X0	Y0	Z0	X1	Y1	Z1	X2	Y2	Z2	X3	Y3	Z3	X4	Y4	Z4	X5	Y5	Z5	X6	Y6	Z6	X7	Y7	Z7	X8	Y8	Z8	X9	Y9	Z9	X10	Y10	Z10	X11	Y11	Z11	X12	Y12	Z12	X13	Y13	Z13	X14	Y14	Z14	X15	Y15	Z15	X16	Y16	Z16	X17	Y17	Z17	X18	Y18	Z18	
0	0	116.656	47.6884	63.5853	89.0815	29.087	55.1477	72.4686	13.7663	38.4294	57.9013	0.374584	28.9215	131.552	38.0111	-19.0849	131.618	34.4216	-48.0459	130.882	33.5147	-69.3957	163.595	41.7212	-26.5058	162.855	37.7635	-54.468	171.049	33.0878	-83.7574	185.279	37.8377	-17.9655	191.484	36.0447	-45.476	200.175	31.6228	-70.3028	209.364	25.4085	4.86357	223.274	21.9613	-7.35092	237.045	26.9733	-20.5504	179.03	54.4119	30.1727	178.302	71.4297	61.2209	144.642	64.314	44.0897	
1	0.00833333	114.064	46.4681	58.7531	93.7419	29.1604	54.6392	73.6936	14.2523	36.1162	55.6574	2.49228	31.7429	131.693	37.4964	-19.536	129.582	36.015	-47.9456	135.03	33.6078	-73.3201	159.932	41.4783	-26.2453	162.774	37.5371	-58.9408	170.787	33.5971	-86.1631	183.283	37.8504	-20.8423	195.209	36.0283	-42.0281	198.587	31.5166	-70.3304	208.308	25.0888	5.1496	224.276	21.7388	-8.51398	236.608	25.4562	-26.7158	178.819	53.7606	30.1244	178.733	70.2001	60.7688	144.137	64.5336	40.3354	
2	0.0166667	113.573	48.2211	62.8726	93.7018	27.7255	51.4239	72.7541	14.7635	36.4691	57.7949	2.90841	28.543	132.239	37.5597	-20.8419	128.851	35.7998	-44.9655	135.539	33.7902	-70.7469	160.693	41.2537	-32.0586	162.458	37.7478	-59.2231	171.311	33.252	-88.313	186.139	38.0808	-19.5052	191.427	36.1431	-43.3209	199.495	30.8458	-69.6987	209.211	26.1101	3.06527	222.876	21.288	-7.12769	234.71	25.7543	-24.2075	179.902	53.5193	28.3309	181.969	70.0353	57.2032	146.381	65.4027	40.8252	
3	0.025	112.329	47.8956	59.3662	91.8316	29.7893	53.7428	72.9206	14.6337	34.5252	55.305	2.53089	28.688	130.118	38.4831	-19.778	129.158	36.0743	-50.0158	136.596	34.3548	-73.2082	164.526	42.0529	-30.2048	166.587	37.8608	-60.5386	173.406	32.512	-86.9394	184.947	39.3932	-22.151	193.629	37.0386	-47.7997	198.477	30.9015	-71.2221	208.675	26.8847	3.53717	220.948	22.2319	-7.0446	238.648	26.5341	-27.0341	177.246	55.6089	26.9516	180.659	69.2805	59.7336	142.862	63.7889	37.0432	
4	0.0333333	111.434	48.0923	57.741	92.7457	29.4412	52.3049	73.0891	15.3235	35.79	56.283	1.4275	27.4142	132.193	38.723	-23.74	129.132	37.0016	-47.1294	136.891	33.7287	-72.7981	159.85	42.4335	-27.6668	164.708	37.3133	-60.929	170.222	33.2017	-86.025	184.104	38.347	-17.6112	191.252	36.6297	-49.1085	199.233	32.2465	-72.9824	209.183	26.9472	6.36694	224.509	23.0476	-11.009	239.343	25.7947	-27.6238	178.17	55.625	30.0833	183.684	71.0494	58.8737	148.479	64.7035	40.5214	
5	0.0416667	112.44	47.4752	56.7161	94.7441	29.1878	50.9921	76.5538	16.3928	38.6549	58.808	3.07703	29.0147	129.494	38.6305	-22.5141	133.562	36.8328	-49.8841	130.959	35.5595	-76.1032	162.781	43.0347	-27.9542	167.14	39.299	-57.587	169.909	33.7622	-84.8294	184.065	39.6692	-21.4942	194.222	38.6406	-45.7601	196.997	32.24	-69.7693	212.626	27.1013	3.83526	221.63	24.0163	-9.24979	241.776	28.4872	-27.3632	182.841	54.5672	27.6201	181.275	69.4144	56.3873	148.459	63.8587	36.6237	
6	0.05	114.947	48.3654	57.1255	91.4509	32.2824	52.3498	71.1909	18.2586	36.7677	55.3918	4.99717	30.4952	130.896	39.7661	-23.1851	128.305	38.3123	-50.6177	136.199	36.0048	-75.1956	160.242	44.6087	-29.7944	164.792	40.1345	-58.3354	170.831	34.4629	-87.2232	188.283	41.205	-20.9847	195.554	39.1647	-46.0765	200.779	33.4408	-69.5322	208.959	28.3702	4.40894	226.284	23.7933	-8.89197	241.958	28.6399	-27.7756	179.284	57.5306	29.4697	179.075	70.8448	58.2778	146.349	64.6051	37.1169	
7	0.0583333	114.329	50.0896	60.6583	92.1084	32.0327	51.3585	73.1634	18.3347	36.7876	55.1882	5.61443	28.2038	129.198	41.0026	-24.0032	131.785	37.9179	-52.7652	134.095	37.4614	-78.1053	162.849	43.8845	-31.8008	165.428	39.8536	-60.3404	174.381	34.6776	-91.3762	189.398	40.4524	-21.9218	197.182	39.0497	-47.5328	198.374	34.1745	-70.4141	209.005	29.2557	5.24236	221.942	24.8491	-8.2175	240.521	30.8163	-24.9038	179.067	57.5826	24.4891	179.997	72.58	59.2278	144.262	66.6926	39.1282	
8	0.0666667	116.556	48.3132	55.1046	92.5571	31.9295	51.3578	75.7856	18.9138	37.3982	56.378	6.16109	30.0967	131.447	40.5372	-25.7043	130.55	39.689	-51.5042	135.557	37.7978	-73.9055	163.489	44.6813	-31.0764	166.788	39.7157	-62.9967	171.028	34.9987	-86.2584	185.501	41.6412	-19.2822	193.485	39.229	-45.9189	200.905	34.4215	-73.5802	211.295	29.6156	3.84926	223.172	24.9279	-11.3452	240.283	29.5905	-22.4517	183.433	58.1948	25.542	183.488	71.4007	55.7832	148.039	66.2198	39.5433	
9	0.075	114.574	51.4233	59.0162	92.3084	31.5927	50.6738	74.275	20.2214	37.5554	54.9356	7.22711	27.9695	133.446	41.904	-25.99	128.922	39.7562	-48.6436	134.508	37.9303	-77.5439	160.435	45.8446	-34.5718	166.22	40.5761	-63.3278	170.126	36.3395	-87.735	186.389	42.2489	-19.8769	192.281	39.9185	-46.7331	198.827	34.7714	-72.7026	213.177	29.9091	4.37574	223.975	26.085	-10.4721	237.668	32.0447	-26.9194	178.26	56.8835	27.8706	183.294	70.7006	54.3864	149.808	68.6483	39.1175	
10	0.0833333	116.837	50.5703	55.1989	89.9923	32.6081	48.4417	70.897	19.9706	36.8393	54.9408	6.5051	26.4572	130.962	42.3386	-22.8526	128.824	40.0875	-53.1738	137.339	38.6757	-75.1974	162.825	44.7716	-33.9587	168.26	41.3972	-59.7407	172.578	35.4849	-88.2805	188.347	42.1725	-23.7843	193.743	40.5034	-47.8541	199.344	34.9794	-72.9423	213.324	28.975	4.08221	223.499	25.88	-11.2126	240.509	32.2545	-29.4119	178.536	57.7563	28.6857	182.052	73.411	57.0253	148.82	66.5287	39.5852	
11	0.0916667	116.407	51.3516	59.4853	96.2735	32.2032	48.409	71.9295	18.9736	32.6906	53.2279	6.93882	25.1912	129.674	42.0106	-25.7761	131.624	40.3632	-52.7717	135.424	38.6281	-78.3279	160.103	45.1316	-31.5076	166.952	41.2814	-62.013	169.509	36.0176	-89.6425	187.616	42.8313	-23.6235	194.859	40.1697	-48.002	198.709	34.1531	-75.6408	211.188	29.5605	-1.98536	226.545	26.6683	-13.6437	241.348	30.8852	-28.404	181.281	56.909	23.279	182	72.1769	55.2991	145.252	65.7838	35.295	
12	0.1	114.087	50.9915	58.4504	95.0751	31.6147	48.359	75.3563	19.4122	36.6079	56.6596	7.5383	27.5636	129.005	43.136	-27.9807	131.881	40.3079	-52.699	132.16	38.0923	-74.465	160.216	45.248	-36.7929	168.728	39.2978	-64.4464	172.313	33.8697	-89.9603	186.409	42.2906	-25.5095	196.436	39.5608	-51.5919	196.823	34.5959	-76.0693	213.234	30.6047	-0.579652	224.158	26.9918	-14.3807	238.947	30.575	-31.7548	179.412	59.172	23.6655	181.756	71.0341	54.4646	145.704	68.6373	37.9615	
13	0.108333	118.003	49.3382	55.2327	94.0691	30.3926	48.4366	76.2561	18.5062	34.3299	57.732	6.19142	28.8982	133.034	42.2102	-24.9373	133.243	41.0074	-52.4156	133.912	39.476	-80.095	164.874	45.3774	-31.8809	167.896	40.3094	-60.6924	173.339	33.537	-92.4647	189.613	41.9233	-26.0133	190.525	39.2407	-50.2935	198.661	34.1897	-72.2443	212.69	30.9363	3.06282	226.588	26.3622	-14.3583	236.052	30.7748	-30.6009	179.359	58.7954	26.9834	182.265	71.156	53.3133	145.325	68.6	38.0863	
14	0.116667	115.983	48.9333	55.3418	91.8149	30.8593	51.0443	75.5477	17.2917	34.8856	55.2415	3.49653	24.3833	130.488	43.7557	-28.7791	133.159	40.6629	-55.0184	132.8	39.2318	-77.6893	160.586	44.6822	-34.4313	168.084	40.1415	-60.1871	171.671	33.3441	-91.6251	189.978	42.1554	-24.3402	194.435	40.0029	-53.349	198.341	33.9914	-77.5544	211.261	30.3946	1.81793	226.214	27.9928	-10.0989	239.989	32.2558	-31.9377	182.923	57.8258	25.7625	180.538	72.1302	55.1947	146.524	65.6112	35.0803	
15	0.125	114.148	49.6556	54.7026	94.4284	29.0682	49.0793	75.433	16.2481	35.8444	59.2813	2.41814	27.0273	130.024	45.0843	-28.1061	130.137	41.9089	-55.1572	131.65	41.3296	-77.8796	162.334	45.7533	-36.5928	164.172	40.5372	-64.9081	169.249	34.8722	-90.3566	185.522	43.9606	-26.191	196.705	42.1661	-48.6222	200.677	35.5285	-75.778	212.251	31.8561	1.14439	225.497	28.5507	-11.5523	238.496	33.928	-31.0867	184.411	60.32	26.86	184.75	72.6882	53.6196	147.321	67.5292	38.8783	
